<svg xmlns="http://www.w3.org/2000/svg" xmlns:xlink="http://www.w3.org/1999/xlink" width="500" zoomAndPan="magnify" viewBox="0 0 375 374.999991" height="500" preserveAspectRatio="xMidYMid meet" version="1.2"><defs/><g id="b05718452c"><g style="fill:#000000;fill-opacity:1;"><g transform="translate(0.0175826, 223.874985)"><path style="stroke:none" d="M 0 -85.5625 L 77.96875 -85.5625 C 77.132812 -81.851562 76.445312 -78.3125 75.90625 -74.9375 C 75.363281 -71.570312 74.929688 -68.0625 74.609375 -64.40625 C 74.285156 -60.757812 74 -56.597656 73.75 -51.921875 C 72.976562 -55.441406 72.0625 -58.992188 71 -62.578125 C 69.945312 -66.171875 68.601562 -69.488281 66.96875 -72.53125 C 65.332031 -75.582031 63.28125 -78.035156 60.8125 -79.890625 C 58.34375 -81.753906 55.3125 -82.6875 51.71875 -82.6875 C 50.695312 -77.425781 49.863281 -71.832031 49.21875 -65.90625 C 48.582031 -59.976562 48.203125 -53.265625 48.078125 -45.765625 C 48.015625 -37.941406 48.332031 -30.148438 49.03125 -22.390625 C 49.738281 -14.640625 50.894531 -7.175781 52.5 0 L 25.28125 0 C 26.882812 -7.050781 28.085938 -14.453125 28.890625 -22.203125 C 29.691406 -29.960938 30.03125 -37.816406 29.90625 -45.765625 C 29.707031 -53.265625 29.300781 -59.976562 28.6875 -65.90625 C 28.082031 -71.832031 27.238281 -77.425781 26.15625 -82.6875 C 22.625 -82.6875 19.640625 -81.753906 17.203125 -79.890625 C 14.773438 -78.035156 12.726562 -75.601562 11.0625 -72.59375 C 9.394531 -69.582031 8.015625 -66.28125 6.921875 -62.6875 C 5.828125 -59.09375 4.898438 -55.566406 4.140625 -52.109375 C 3.941406 -56.722656 3.664062 -60.859375 3.3125 -64.515625 C 2.957031 -68.171875 2.523438 -71.664062 2.015625 -75 C 1.503906 -78.332031 0.832031 -81.851562 0 -85.5625 Z M 0 -85.5625 "/></g></g><g style="fill:#000000;fill-opacity:1;"><g transform="translate(69.334877, 223.874985)"><path style="stroke:none" d="M 32.984375 -8.65625 C 31.179688 -5.125 28.722656 -2.460938 25.609375 -0.671875 C 22.503906 1.117188 19.320312 2.015625 16.0625 2.015625 C 12.914062 2.015625 9.960938 1.21875 7.203125 -0.375 C 4.453125 -1.976562 2.351562 -4.398438 0.90625 -7.640625 C -0.53125 -10.878906 -0.894531 -14.898438 -0.1875 -19.703125 C 0.445312 -24.003906 2.078125 -27.722656 4.703125 -30.859375 C 7.335938 -34.003906 10.515625 -36.441406 14.234375 -38.171875 C 17.953125 -39.898438 21.734375 -40.765625 25.578125 -40.765625 C 27.941406 -40.765625 30.242188 -40.410156 32.484375 -39.703125 C 34.734375 -39.003906 36.789062 -37.914062 38.65625 -36.4375 C 39.550781 -38.226562 40.207031 -40.40625 40.625 -42.96875 C 41.039062 -45.539062 40.800781 -48.300781 39.90625 -51.25 C 39.195312 -53.6875 38.070312 -55.546875 36.53125 -56.828125 C 35 -58.109375 33.523438 -58.75 32.109375 -58.75 C 31.085938 -58.75 30.222656 -58.410156 29.515625 -57.734375 C 28.804688 -57.054688 28.390625 -56.015625 28.265625 -54.609375 C 28.003906 -51.398438 27.28125 -48.914062 26.09375 -47.15625 C 24.914062 -45.394531 23.507812 -44.144531 21.875 -43.40625 C 20.238281 -42.664062 18.617188 -42.203125 17.015625 -42.015625 C 14.128906 -41.691406 11.820312 -42.15625 10.09375 -43.40625 C 8.363281 -44.65625 7.484375 -46.257812 7.453125 -48.21875 C 7.421875 -50.175781 8.429688 -52.050781 10.484375 -53.84375 C 13.429688 -56.46875 16.8125 -58.453125 20.625 -59.796875 C 24.4375 -61.148438 28.234375 -61.828125 32.015625 -61.828125 C 35.285156 -61.828125 38.394531 -61.296875 41.34375 -60.234375 C 44.289062 -59.179688 46.851562 -57.578125 49.03125 -55.421875 C 51.207031 -53.273438 52.773438 -50.535156 53.734375 -47.203125 C 54.703125 -43.867188 54.832031 -39.925781 54.125 -35.375 C 53.675781 -32.238281 53.304688 -28.9375 53.015625 -25.46875 C 52.734375 -22.007812 52.992188 -18.195312 53.796875 -14.03125 C 54.597656 -9.863281 56.375 -5.1875 59.125 0 L 33.84375 0 C 33.394531 -1.476562 33.117188 -2.9375 33.015625 -4.375 C 32.921875 -5.8125 32.910156 -7.238281 32.984375 -8.65625 Z M 19.421875 -22.40625 C 18.585938 -19.070312 18.3125 -16.171875 18.59375 -13.703125 C 18.882812 -11.234375 19.578125 -9.328125 20.671875 -7.984375 C 21.765625 -6.640625 23.015625 -5.96875 24.421875 -5.96875 C 25.890625 -5.96875 27.425781 -6.78125 29.03125 -8.40625 C 30.632812 -10.039062 32.078125 -12.617188 33.359375 -16.140625 C 34.640625 -19.671875 35.535156 -24.257812 36.046875 -29.90625 C 36.046875 -32.144531 35.597656 -33.773438 34.703125 -34.796875 C 33.804688 -35.828125 32.71875 -36.34375 31.4375 -36.34375 C 29.382812 -36.34375 27.140625 -35.140625 24.703125 -32.734375 C 22.273438 -30.328125 20.515625 -26.882812 19.421875 -22.40625 Z M 19.421875 -22.40625 "/></g></g><g style="fill:#000000;fill-opacity:1;"><g transform="translate(127.308067, 223.874985)"><path style="stroke:none" d="M 3.5625 -9.703125 C 2.207031 -12.140625 1.609375 -14.398438 1.765625 -16.484375 C 1.929688 -18.566406 2.71875 -20.25 4.125 -21.53125 C 5.539062 -22.8125 7.4375 -23.453125 9.8125 -23.453125 C 11.601562 -23.453125 13.585938 -23.019531 15.765625 -22.15625 C 17.941406 -21.289062 20.28125 -19.867188 22.78125 -17.890625 C 20.988281 -16.597656 19.816406 -15.070312 19.265625 -13.3125 C 18.722656 -11.550781 18.773438 -9.820312 19.421875 -8.125 C 20.066406 -6.425781 21.1875 -4.90625 22.78125 -3.5625 C 24.769531 -1.957031 26.851562 -1.15625 29.03125 -1.15625 C 31.019531 -1.15625 32.832031 -1.726562 34.46875 -2.875 C 36.101562 -4.03125 37.269531 -5.535156 37.96875 -7.390625 C 38.675781 -9.253906 38.675781 -11.226562 37.96875 -13.3125 C 37.269531 -15.394531 35.609375 -17.335938 32.984375 -19.140625 C 30.796875 -20.671875 28.210938 -22.09375 25.234375 -23.40625 C 22.253906 -24.71875 19.351562 -26.144531 16.53125 -27.6875 C 12.8125 -29.738281 9.972656 -32.207031 8.015625 -35.09375 C 6.066406 -37.976562 5.0625 -40.941406 5 -43.984375 C 4.9375 -47.023438 5.929688 -49.875 7.984375 -52.53125 C 10.035156 -55.195312 13.175781 -57.363281 17.40625 -59.03125 C 19.84375 -59.925781 22.421875 -60.613281 25.140625 -61.09375 C 27.867188 -61.582031 30.578125 -61.828125 33.265625 -61.828125 C 36.660156 -61.828125 39.863281 -61.457031 42.875 -60.71875 C 45.894531 -59.976562 48.378906 -58.898438 50.328125 -57.484375 C 52.285156 -56.078125 53.425781 -54.285156 53.75 -52.109375 C 54.132812 -49.671875 53.363281 -47.332031 51.4375 -45.09375 C 49.507812 -42.851562 46.460938 -41.472656 42.296875 -40.953125 C 39.421875 -40.640625 37.082031 -41.054688 35.28125 -42.203125 C 33.488281 -43.359375 32.546875 -44.863281 32.453125 -46.71875 C 32.359375 -48.582031 33.332031 -50.378906 35.375 -52.109375 C 36.28125 -52.878906 36.75 -53.773438 36.78125 -54.796875 C 36.8125 -55.828125 36.296875 -56.757812 35.234375 -57.59375 C 34.179688 -58.425781 32.46875 -58.84375 30.09375 -58.84375 C 29.257812 -58.84375 28.21875 -58.425781 26.96875 -57.59375 C 25.71875 -56.757812 24.5625 -55.664062 23.5 -54.3125 C 22.445312 -52.96875 21.726562 -51.523438 21.34375 -49.984375 C 20.957031 -48.453125 21.164062 -46.945312 21.96875 -45.46875 C 22.769531 -44 24.421875 -42.753906 26.921875 -41.734375 C 29.222656 -40.765625 31.703125 -39.816406 34.359375 -38.890625 C 37.023438 -37.960938 39.671875 -36.9375 42.296875 -35.8125 C 44.929688 -34.6875 47.320312 -33.320312 49.46875 -31.71875 C 51.613281 -30.125 53.34375 -28.1875 54.65625 -25.90625 C 55.96875 -23.632812 56.625 -20.894531 56.625 -17.6875 C 56.625 -14.101562 55.582031 -10.898438 53.5 -8.078125 C 51.414062 -5.253906 48.804688 -3.039062 45.671875 -1.4375 C 43.492188 -0.351562 41.023438 0.472656 38.265625 1.046875 C 35.503906 1.628906 32.648438 1.921875 29.703125 1.921875 C 26.179688 1.921875 22.707031 1.503906 19.28125 0.671875 C 15.851562 -0.160156 12.757812 -1.441406 10 -3.171875 C 7.238281 -4.898438 5.09375 -7.078125 3.5625 -9.703125 Z M 3.5625 -9.703125 "/></g></g><g style="fill:#000000;fill-opacity:1;"><g transform="translate(185.666145, 223.874985)"><path style="stroke:none" d="M 27.984375 0 L 2.6875 0 C 3.84375 -4.675781 4.753906 -9.882812 5.421875 -15.625 C 6.097656 -21.363281 6.546875 -27.320312 6.765625 -33.5 C 6.992188 -39.6875 6.992188 -45.875 6.765625 -52.0625 C 6.546875 -58.25 6.097656 -64.207031 5.421875 -69.9375 C 4.753906 -75.675781 3.84375 -80.882812 2.6875 -85.5625 L 27.984375 -85.5625 C 26.703125 -80.3125 25.691406 -74.445312 24.953125 -67.96875 C 24.210938 -61.5 23.773438 -54.769531 23.640625 -47.78125 C 23.515625 -40.789062 23.675781 -33.929688 24.125 -27.203125 C 25.03125 -33.617188 26.632812 -39.066406 28.9375 -43.546875 C 31.25 -48.035156 33.941406 -51.65625 37.015625 -54.40625 C 40.085938 -57.164062 43.164062 -59.125 46.25 -60.28125 C 47.976562 -60.988281 49.867188 -61.4375 51.921875 -61.625 C 55.578125 -62.007812 58.441406 -61.640625 60.515625 -60.515625 C 62.597656 -59.398438 63.925781 -57.878906 64.5 -55.953125 C 65.082031 -54.035156 64.941406 -52.035156 64.078125 -49.953125 C 63.210938 -47.867188 61.640625 -46.023438 59.359375 -44.421875 C 57.085938 -42.816406 54.160156 -41.820312 50.578125 -41.4375 C 47.109375 -41.050781 44.523438 -41.660156 42.828125 -43.265625 C 41.128906 -44.867188 40.695312 -46.757812 41.53125 -48.9375 C 41.914062 -49.957031 42.109375 -50.769531 42.109375 -51.375 C 42.109375 -51.988281 41.820312 -52.296875 41.25 -52.296875 C 40.800781 -52.296875 40.316406 -52.171875 39.796875 -51.921875 C 37.941406 -51.023438 36.050781 -49.273438 34.125 -46.671875 C 32.207031 -44.078125 30.578125 -40.664062 29.234375 -36.4375 C 32.117188 -36.5625 34.726562 -36.832031 37.0625 -37.25 C 39.40625 -37.664062 41.601562 -38.132812 43.65625 -38.65625 C 44.414062 -36.789062 45.390625 -34.492188 46.578125 -31.765625 C 47.765625 -29.046875 49.109375 -26.164062 50.609375 -23.125 C 52.117188 -20.082031 53.707031 -17.066406 55.375 -14.078125 C 57.039062 -11.097656 58.722656 -8.375 60.421875 -5.90625 C 62.117188 -3.445312 63.738281 -1.476562 65.28125 0 L 40 0 C 39.738281 -2.050781 39.03125 -4.660156 37.875 -7.828125 C 36.726562 -11.003906 35.269531 -14.5 33.5 -18.3125 C 31.738281 -22.125 29.800781 -25.988281 27.6875 -29.90625 C 26.976562 -25.988281 26.625 -21.5 26.625 -16.4375 C 26.625 -11.375 27.078125 -5.894531 27.984375 0 Z M 27.984375 0 "/></g></g><g style="fill:#000000;fill-opacity:1;"><g transform="translate(249.888873, 223.874985)"><path style="stroke:none" d="M 3.265625 0 C 4.679688 -5.894531 5.738281 -11.226562 6.4375 -16 C 7.144531 -20.78125 7.5 -25.394531 7.5 -29.84375 C 7.5 -34.300781 7.144531 -38.914062 6.4375 -43.6875 C 5.738281 -48.46875 4.679688 -53.804688 3.265625 -59.703125 L 28.5625 -59.703125 C 27.144531 -53.804688 26.066406 -48.46875 25.328125 -43.6875 C 24.597656 -38.914062 24.234375 -34.300781 24.234375 -29.84375 C 24.234375 -25.394531 24.597656 -20.78125 25.328125 -16 C 26.066406 -11.226562 27.144531 -5.894531 28.5625 0 Z M 16.25 -68.9375 C 12.65625 -68.550781 9.769531 -68.898438 7.59375 -69.984375 C 5.414062 -71.078125 3.957031 -72.582031 3.21875 -74.5 C 2.476562 -76.425781 2.460938 -78.429688 3.171875 -80.515625 C 3.878906 -82.597656 5.320312 -84.441406 7.5 -86.046875 C 9.675781 -87.648438 12.59375 -88.675781 16.25 -89.125 C 19.832031 -89.507812 22.710938 -89.140625 24.890625 -88.015625 C 27.078125 -86.898438 28.519531 -85.378906 29.21875 -83.453125 C 29.925781 -81.523438 29.925781 -79.519531 29.21875 -77.4375 C 28.519531 -75.363281 27.078125 -73.523438 24.890625 -71.921875 C 22.710938 -70.316406 19.832031 -69.320312 16.25 -68.9375 Z M 16.25 -68.9375 "/></g></g><g style="fill:#000000;fill-opacity:1;"><g transform="translate(282.288652, 223.874985)"><path style="stroke:none" d="M 0.484375 -59.703125 L 3.75 -59.703125 C 2.976562 -63.160156 2.878906 -66.585938 3.453125 -69.984375 C 4.035156 -73.390625 5.222656 -76.484375 7.015625 -79.265625 C 8.804688 -82.054688 11.207031 -84.332031 14.21875 -86.09375 C 17.238281 -87.863281 20.832031 -88.875 25 -89.125 C 29.226562 -89.320312 32.492188 -88.796875 34.796875 -87.546875 C 37.109375 -86.296875 38.488281 -84.644531 38.9375 -82.59375 C 39.382812 -80.539062 38.867188 -78.421875 37.390625 -76.234375 C 35.921875 -74.054688 33.550781 -72.132812 30.28125 -70.46875 C 27.007812 -68.800781 22.8125 -67.742188 17.6875 -67.296875 C 17.882812 -69.347656 17.691406 -70.96875 17.109375 -72.15625 C 16.535156 -73.34375 15.800781 -74.222656 14.90625 -74.796875 C 13.425781 -75.691406 12.109375 -76.140625 10.953125 -76.140625 C 9.097656 -76.140625 7.878906 -75.226562 7.296875 -73.40625 C 6.722656 -71.582031 7.429688 -69.289062 9.421875 -66.53125 C 10.898438 -64.539062 12.644531 -63.03125 14.65625 -62 C 16.675781 -60.976562 19 -60.210938 21.625 -59.703125 L 37.984375 -59.703125 L 37.5 -56.828125 L 28.359375 -56.828125 C 27.078125 -51.378906 26.128906 -46.394531 25.515625 -41.875 C 24.910156 -37.351562 24.640625 -32.960938 24.703125 -28.703125 C 24.773438 -24.441406 25.160156 -20 25.859375 -15.375 C 26.566406 -10.757812 27.625 -5.632812 29.03125 0 L 3.75 0 C 5.09375 -5.632812 6.132812 -10.757812 6.875 -15.375 C 7.613281 -20 8 -24.441406 8.03125 -28.703125 C 8.0625 -32.960938 7.785156 -37.351562 7.203125 -41.875 C 6.628906 -46.394531 5.703125 -51.378906 4.421875 -56.828125 L 1.34375 -56.828125 Z M 0.484375 -59.703125 "/></g></g><g style="fill:#000000;fill-opacity:1;"><g transform="translate(315.07302, 223.874985)"><path style="stroke:none" d="M 19.515625 25.859375 C 15.285156 26.117188 12 25.609375 9.65625 24.328125 C 7.320312 23.046875 5.945312 21.378906 5.53125 19.328125 C 5.113281 17.273438 5.625 15.15625 7.0625 12.96875 C 8.507812 10.789062 10.882812 8.867188 14.1875 7.203125 C 17.488281 5.546875 21.703125 4.488281 26.828125 4.03125 C 26.628906 6.019531 26.816406 7.640625 27.390625 8.890625 C 27.972656 10.140625 28.710938 11.054688 29.609375 11.640625 C 31.273438 12.660156 33.070312 13.171875 35 13.171875 C 37.5 13.171875 39.835938 12.351562 42.015625 10.71875 C 44.191406 9.082031 45.632812 7.015625 46.34375 4.515625 C 47.175781 1.828125 47.507812 -1.082031 47.34375 -4.21875 C 47.1875 -7.363281 46.738281 -10.425781 46 -13.40625 C 45.269531 -16.394531 44.390625 -19.007812 43.359375 -21.25 C 42.648438 -16.3125 41.191406 -12.144531 38.984375 -8.75 C 36.773438 -5.351562 34.160156 -2.769531 31.140625 -1 C 28.128906 0.757812 25.085938 1.734375 22.015625 1.921875 C 19.003906 2.046875 16.179688 1.390625 13.546875 -0.046875 C 10.921875 -1.492188 8.835938 -3.753906 7.296875 -6.828125 C 5.765625 -9.898438 5.128906 -13.773438 5.390625 -18.453125 C 5.515625 -21.148438 5.671875 -23.972656 5.859375 -26.921875 C 6.054688 -29.867188 6.054688 -33.007812 5.859375 -36.34375 C 5.671875 -39.675781 5.046875 -43.265625 3.984375 -47.109375 C 2.929688 -50.953125 1.1875 -55.148438 -1.25 -59.703125 L 24.03125 -59.703125 C 24.863281 -56.953125 25.265625 -53.894531 25.234375 -50.53125 C 25.203125 -47.164062 24.960938 -43.65625 24.515625 -40 C 24.066406 -36.34375 23.566406 -32.71875 23.015625 -29.125 C 22.472656 -25.539062 22.054688 -22.113281 21.765625 -18.84375 C 21.484375 -15.570312 21.535156 -12.65625 21.921875 -10.09375 C 22.242188 -8.300781 22.898438 -6.957031 23.890625 -6.0625 C 24.878906 -5.164062 26.082031 -4.71875 27.5 -4.71875 C 29.039062 -4.71875 30.707031 -5.335938 32.5 -6.578125 C 34.289062 -7.828125 35.9375 -9.703125 37.4375 -12.203125 C 38.945312 -14.703125 40.117188 -17.90625 40.953125 -21.8125 C 41.785156 -25.726562 42.046875 -30.316406 41.734375 -35.578125 C 41.472656 -40.765625 40.78125 -45.457031 39.65625 -49.65625 C 38.539062 -53.851562 37.148438 -57.203125 35.484375 -59.703125 L 60.765625 -59.703125 C 58.523438 -57.015625 56.875 -53.726562 55.8125 -49.84375 C 54.75 -45.96875 54.023438 -41.753906 53.640625 -37.203125 C 53.265625 -32.648438 52.992188 -27.9375 52.828125 -23.0625 C 52.671875 -18.195312 52.367188 -13.441406 51.921875 -8.796875 C 51.472656 -4.148438 50.640625 0.160156 49.421875 4.140625 C 47.171875 11.316406 43.484375 16.632812 38.359375 20.09375 C 33.234375 23.550781 26.953125 25.472656 19.515625 25.859375 Z M 19.515625 25.859375 "/></g></g></g></svg>